<svg xmlns="http://www.w3.org/2000/svg" width="142.35" height="132" viewBox="0 0 142.35 132">
  <path id="패스_26" data-name="패스 26" d="M691-184.1c0,.5,9,14.7,20,31.5s20,30.8,20,31.1S720.9-105.7,708.5-87L686.1-53h45.7l12.5-20.2c6.9-11.2,12.9-20.3,13.4-20.3.4,0,6.4,9.1,13.2,20.3L783.3-53h22.9c18.1,0,22.8-.3,22.2-1.3-.5-.6-10.4-15.8-22.1-33.6-11.8-17.9-21.2-32.9-21-33.5.3-.6,9.1-14.5,19.7-31,10.5-16.4,19.4-30.5,19.7-31.2.4-1.2-3.2-1.4-21.5-1.4H781.1l-11.2,20.1c-6.1,11-11.5,19.7-12,19.2s-5.7-9.4-11.7-19.8l-11-19-22.1-.3C699.5-184.9,691-184.7,691-184.1Z" transform="translate(-686.1 185)"/>
</svg>
