<svg xmlns="http://www.w3.org/2000/svg" width="119.019" height="135.613" viewBox="0 0 119.019 135.613">
  <path id="패스_17" data-name="패스 17" d="M883.5-414.1c-18.5,3.1-30.2,10.7-36.3,23.9-2.2,4.6-2.6,7.2-2.7,13.7,0,7.1.4,8.8,3.3,14.7,6.4,13.1,19.7,20.6,48.9,27.7,11.9,2.9,17.9,5.8,20.3,9.6,3,4.8,2.6,9.7-1,13.9-3.9,4.4-8.5,5.9-16.3,5.4-11.3-.8-17.1-5.5-20.3-16.7l-1.6-5.3-7.7.6c-4.2.3-12.7.9-18.9,1.2-6.2.4-11.4,1-11.6,1.3-.8,1.5,2.6,14.1,5.4,19.7,6.4,13.1,17.2,20.9,33.3,23.9,10.2,1.9,33,1.9,42.2,0,15.9-3.3,28.4-12.8,34.8-26.2,2.9-6.2,3.2-7.6,3.2-16.8,0-8.7-.4-10.7-2.6-15.5-6.8-14.5-17.1-20.6-48.6-28.6-9.5-2.4-18.7-5.1-20.3-5.9-6.3-3.2-6.2-10,0-14.3,4.5-3,13.6-3.1,19.7-.1,3.6,1.7,4.8,3.1,7.4,8.5,2.3,4.9,3.5,6.4,4.7,6,.9-.2,8.7-.7,17.2-1.1,8.5-.3,16.2-.8,17.1-1.1,3.9-1.1-2.9-19.2-10-26.3-4.7-4.7-11.3-8.3-19.7-10.6C916.7-414.4,891.5-415.4,883.5-414.1Z" transform="translate(-839.481 414.688)"/>
</svg>
