<svg xmlns="http://www.w3.org/2000/svg" width="143.301" height="132" viewBox="0 0 143.301 132">
  <path id="패스_3" data-name="패스 3" d="M55.2-843.8c-5,13.4-16.1,42.9-24.6,65.7C22-755.4,15-736.6,15-736.4s9.4.4,20.8.4H56.7l1.2-4.3c.7-2.3,2.2-7.2,3.3-11l2-6.7,23.1.2,23.1.3,3.4,10.8,3.3,10.7,21.2-.2c13.4-.2,21.1-.7,21-1.3-.2-1.4-48.1-128.4-48.8-129.5-.4-.6-9.7-1-22.9-1H64.3ZM94-809.1l6.7,22.1H72.1l.9-2.8c.5-1.5,3.4-11,6.5-21.2,6.9-22.9,6.4-21.4,7.1-20.7C86.9-831.4,90.2-821.2,94-809.1Z" transform="translate(-15 868)"/>
</svg>
