<svg xmlns="http://www.w3.org/2000/svg" width="136.608" height="136.02" viewBox="0 0 136.608 136.02">
  <path id="패스_16" data-name="패스 16" d="M82.3-415c-26,3.8-45.1,20.4-51.3,44.5a100.465,100.465,0,0,0-2.1,35c3.6,26.8,18.3,45.3,41.6,52.4,13.5,4.2,38.6,4.4,51.5.6,29.3-8.8,44.4-33.5,42.7-70-.7-13.8-2.3-21.2-7.2-31-8.5-17.4-25-28.4-46.8-31.4A117.415,117.415,0,0,0,82.3-415Zm26.5,32.9c5.4,2.8,10.6,8.9,12.8,15.2,2.6,7.3,2.6,29.8.1,38-3.4,11.2-10.4,17.1-22,18.5-13.1,1.5-24.5-5.9-28.2-18.7-2.7-8.7-2.7-27.8-.1-36.6,2.8-9.5,9.3-16.1,18.1-18.4C94.2-385.4,104.5-384.3,108.8-382.1Z" transform="translate(-28.222 415.813)"/>
</svg>
