<svg xmlns="http://www.w3.org/2000/svg" width="184" height="132" viewBox="0 0 184 132">
  <path id="패스_21" data-name="패스 21" d="M415-185.8c0,.7,6.5,30.3,14.4,65.8l14.3,64.5,20.1.3,20.1.2,1.4-4.7c.8-2.7,5.9-20.9,11.3-40.5,6.1-22.1,10.2-35.2,10.6-34.3.5.8,5.7,18.8,11.7,40.2l10.9,38.8,20,.3c18.5.2,20.1.1,20.6-1.5.6-2,21.2-95.8,25.2-114.3,1.3-6.3,2.6-12.5,2.9-13.8l.5-2.2H560.4l-3.7,19.7c-2.1,10.9-5.2,27.1-6.9,36.1s-3.2,16.1-3.5,15.9c-.2-.3-4.8-16.4-10.2-35.8l-9.7-35.4-19.5-.3-19.4-.2-7.9,28.7c-4.4,15.9-8.9,32.2-10.1,36.3-2.2,7.4-2.3,7.4-3,4-.4-1.9-3.5-18.1-6.8-36l-6.2-32.5-19.3-.3C419.2-187,415-186.8,415-185.8Z" transform="translate(-415 187)"/>
</svg>
