<svg xmlns="http://www.w3.org/2000/svg" width="129.9" height="132" viewBox="0 0 129.9 132">
  <path id="패스_19" data-name="패스 19" d="M637-348v66h41l.2-26.8.3-26.7,4.4.3c5.3.3,9.3,2.3,11.9,5.9,1.1,1.6,7.3,12.6,13.8,24.6,6.4,12.1,12.2,22.1,12.8,22.3.7.2,11.1.3,23.3.2l22.2-.3-11-21.1c-11.9-22.9-17.7-30.7-25.6-34.8l-4.5-2.2,4.4-1.3a38.9,38.9,0,0,0,23.1-19.9c3.2-6.8,3.2-24.6.1-31.3-3-6.4-8.8-12.6-14.8-15.6-9-4.6-16.6-5.2-60.8-5.3H637Zm70.9-37.4c7.4,2.9,9.4,13.4,3.7,19.3-3.5,3.6-10.2,5.1-23.2,5.1H678v-26h13C700.5-387,705-386.6,707.9-385.4Z" transform="translate(-637 414)"/>
</svg>
