<svg xmlns="http://www.w3.org/2000/svg" width="148.5" height="132.88" viewBox="0 0 148.5 132.88">
  <path id="패스_11" data-name="패스 11" d="M891-576v66l2.3.5c1.2.3,8.7.4,16.7.3l14.5-.3.5-47.9.5-47.9,12,46.8c6.5,25.7,12.5,47.4,13.3,48.2,1.1,1,4.5,1.3,15.5,1.1l14.2-.3L993-558.3l12.5-48.8.3,48.5.2,48.5,3.3.6a144.449,144.449,0,0,0,16.7.3l13.5-.3v-132l-26.7-.3-26.6-.2-1.6,5.2c-.8,2.9-5.4,20.8-10.2,39.7-6.1,23.7-9,33.8-9.6,32.5-.4-1-4.9-17.9-9.9-37.4s-9.5-36.5-10-37.7L944-642H891Z" transform="translate(-891 642)"/>
</svg>
