<svg xmlns="http://www.w3.org/2000/svg" width="140.488" height="148.498" viewBox="0 0 140.488 148.498">
  <path id="패스_15" data-name="패스 15" d="M474.5-417.9c-28,3.3-47.7,20.1-54.1,46.4-2.5,9.8-2.5,33.6-.1,42.5a60.238,60.238,0,0,0,16.6,29c9.1,9,17.4,13.4,30.6,16.1,14.9,3.1,38.1,1.9,48.6-2.5,3.3-1.4,3.5-1.3,8,2,7.5,5.5,22.1,14.4,23.6,14.4,1.2,0,11.3-19.4,11.3-21.7,0-.4-2.8-2.3-6.3-4.1a84.633,84.633,0,0,1-9.1-5.7l-2.9-2.3,2-2.8a73.959,73.959,0,0,0,9.5-21.2c1.7-6.2,2.1-10.6,2.1-22.7,0-17.1-1.8-26-7.5-36.8-4.5-8.6-15.5-19.4-24-23.5C509.8-417.1,491.4-419.8,474.5-417.9Zm24,33.3a27.96,27.96,0,0,1,7.2,4.7c5.7,6.2,9,20.6,7.9,34.9-.5,8.4-2.9,18.4-4.5,19.4-.4.3-3.8-1.5-7.5-4-13.7-9.2-16.4-9.4-19.9-1.7-1.4,3.2-2.7,6.4-2.9,7.1-.2.6,2.8,2.9,6.6,5,9.3,5.1,9.5,6.2.9,6.2-12.9,0-21.2-6.3-25-18.9-2.5-8.1-2.5-29.7,0-36.8,4.4-12.4,12.4-18.3,25.2-18.3C491.8-387,494.7-386.4,498.5-384.6Z" transform="translate(-418.512 418.498)"/>
</svg>
