<svg xmlns="http://www.w3.org/2000/svg" width="134.525" height="135.776" viewBox="0 0 134.525 135.776">
  <path id="패스_2" data-name="패스 2" d="M1189-870c-29.1,2.8-48.9,18.9-56.2,45.7-3.1,11.4-3.1,32.7,0,43.6,5,17.7,16.3,32.6,29.5,39,11.3,5.5,19.5,7,37.7,7.1,26.3.1,37.5-3.4,62.8-19.5l2.2-1.4-.2-28-.3-28-31.2-.3L1202-812v28h27.1l-.3,6.2-.3,6.3-6.5,3.2c-16.2,7.9-33.8,6.2-42.6-4.1-9.2-10.8-11-38.7-3.3-54.3,4.7-9.8,12.6-14.3,24.8-14.3,9.5,0,16,3.2,19.7,9.7,1.5,2.6,2.8,4.9,2.9,5.1.2.3,38.7-6.7,39.2-7.2.7-.7-4.4-12.4-7.5-16.8-6.7-9.8-16-15.7-28.9-18.2C1217.7-870.1,1198.8-870.9,1189-870Z" transform="translate(-1130.475 870.374)"/>
</svg>
