<svg xmlns="http://www.w3.org/2000/svg" width="121.325" height="132.2" viewBox="0 0 121.325 132.2">
  <path id="패스_4" data-name="패스 4" d="M218-801.9v66.1l41.3-.5c52.6-.6,58.3-1.5,68.8-11.4a32.762,32.762,0,0,0,10.7-19.9c1.8-11.1-1.1-22-7.6-28.8-3.6-3.7-14.1-9.6-17.2-9.6-.8,0,.5-1.2,3-2.6,5.9-3.3,10.7-7.9,13.3-12.9,1.8-3.3,2.2-5.6,2.2-14,0-8.5-.3-10.6-2.2-14a33.787,33.787,0,0,0-20-16.4c-5.9-2-8.3-2.1-49.3-2.1H218Zm72.1-35.3c2.3,2.6,2.9,4.1,2.9,8,0,9.7-4.5,12.2-22,12.2H259v-24.2l14.1.4,14.1.3Zm.8,47.8c5.2,2,7.1,5.1,7.1,11.3,0,3.9-.6,5.6-2.6,8-3.5,4.2-7.7,5.1-23.1,5.1H259v-26h14C283.4-791,288-790.6,290.9-789.4Z" transform="translate(-218 868)"/>
</svg>
