<svg xmlns="http://www.w3.org/2000/svg" width="127.909" height="135.806" viewBox="0 0 127.909 135.806">
  <path id="패스_1" data-name="패스 1" d="M452.5-869.9c-22.1,2.1-39.3,12.8-48.5,30-8.8,16.5-10.4,46.6-3.6,65.5,7.3,20,21.6,33.2,41.2,38.1,8.8,2.1,34.3,2.4,42.4.4a51.6,51.6,0,0,0,34.9-28.3c3.5-7.3,6.1-15.8,4.9-15.8-.3,0-7.8-2.2-16.9-5-9-2.7-16.8-5-17.4-5-.5,0-1.8,2.7-2.7,5.9-3.5,11.8-11.1,18.2-22.4,18.9-15.6,1-23.9-7-26.5-25.4-1.3-9.3-.6-23.8,1.5-30.9,5.2-17.4,26.7-24.1,39.9-12.4a25.151,25.151,0,0,1,6.1,7.9c.9,2.3,2.3,4,3.2,4,2.1,0,33.7-6.9,34.2-7.5,1-1-5.3-13.9-9.3-19.4-7.7-10.4-17.2-16.5-30.5-19.5A108.913,108.913,0,0,0,452.5-869.9Z" transform="translate(-396.188 870.358)"/>
</svg>
